{"title":"Umphrey's McGee - 2016-02-04 - Portland, ME (720p TourGigs Rip)","uid":13466176,"size":2923479500,"categoryP":"video","categoryS":"music_videos","magnet":"?xt=urn:btih:32132b8db84b355af057a3501b682a0b0af5cf98&amp;dn=Umphrey%27s+McGee+-+2016-02-04+-+Portland%2C+ME+%28720p+TourGigs+Rip%29&amp;tr=udp%3A%2F%2Ftracker.leechers-paradise.org%3A6969&amp;tr=udp%3A%2F%2Fzer0day.ch%3A1337&amp;tr=udp%3A%2F%2Fopen.demonii.com%3A1337&amp;tr=udp%3A%2F%2Ftracker.coppersurfer.tk%3A6969&amp;tr=udp%3A%2F%2Fexodus.desync.com%3A6969","seeders":1,"leechers":0,"uploader":"NotHuman","files":9,"time":1454935162,"description":"Umphrey's McGee\r\nFebruary 4th, 2016\r\nPortland, ME @ State Theatre\r\nTourGigs HD Live Stream Rip 720p\r\n\r\nSource:\r\n\r\nTourGigs on-demand stream .TS file download &gt; Handbrake 0.10.3 (64-bit) &gt; MP4 \r\n\r\nNotes:\r\n\r\nThe original transport stream (.TS) video file was downloaded from TourGig's server and encoded to H.264 MP4 using Handbrake set to High profile for format convenience.  Audio set to AC3 Passthru and not re-encoded.\r\n\r\n\r\nSetlist:\r\n\r\nSet 1: Nipple Trix &gt; Speak Up, Morning Song, Robot World[1] -&gt; Out Of Order, E.T.I., Kabump, Mad Love\r\n\r\nSet 2: Night Nurse &gt; Plunger &gt; Glory &gt; Plunger, Dump City, Walletsworth &gt; August, FF &gt; Booth Love[2]\r\n\r\nEncore: In the Flesh &gt; Another Brick in the Wall\r\n\r\n[1] with Web Tangle tease\r\n[2] with Isaac Teel on percussion\r\n\r\nSet notes:\r\nwith (Don't Fear) The Reaper tease after E.T.I.\r\n\r\n\r\nScreenshots:\r\n \nhttp://postimg.org/gallery/222rfwtnu/\r\n\r\n\r\n\r\n\r\nMediaInfo:\r\n\r\nGeneral\r\nComplete name                            : F:UploadsUmphrey's McGee - 2016-02-04 - Portland, ME (TourGigs Live Stream Rip 720p)Umphrey's McGee - 2016-02-04 Portland, ME.mp4\r\nFormat                                   : MPEG-4\r\nFormat profile                           : Base Media / Version 2\r\nCodec ID                                 : mp42\r\nFile size                                : 2.72 GiB\r\nDuration                                 : 2h 29mn\r\nOverall bit rate                         : 2 604 Kbps\r\nEncoded date                             : UTC 2016-02-07 13:58:54\r\nTagged date                              : UTC 2016-02-07 13:58:54\r\nWriting application                      : HandBrake 0.10.3 2016012200\r\n\r\nVideo\r\nID                                       : 1\r\nFormat                                   : AVC\r\nFormat/Info                              : Advanced Video Codec\r\nFormat profile                           :   \r\nFormat settings, CABAC                   : Yes\r\nFormat settings, ReFrames                : 4 frames\r\nCodec ID                                 : avc1\r\nCodec ID/Info                            : Advanced Video Coding\r\nDuration                                 : 2h 29mn\r\nBit rate                                 : 2 375 Kbps\r\nWidth                                    : 1 280 pixels\r\nHeight                                   : 720 pixels\r\nDisplay aspect ratio                     : 16:9\r\nFrame rate mode                          : Variable\r\nFrame rate                               : 29.970 fps\r\nMinimum frame rate                       : 5.705 fps\r\nMaximum frame rate                       : 370.370 fps\r\nColor space                              : YUV\r\nChroma subsampling                       : 4:2:0\r\nBit depth                                : 8 bits\r\nScan type                                : Progressive\r\nBits/(Pixel*Frame)                       : 0.086\r\nStream size                              : 2.48 GiB (91%)\r\nWriting library                          : x264 core 142 r2479 dd79a61\r\nEncoding settings                        : cabac=1 / ref=3 / deblock=1:0:0 / analyse=0x3:0x113 / me=hex / subme=7 / psy=1 / psy_rd=1.00:0.00 / mixed_ref=1 / me_range=16 / chroma_me=1 / trellis=1 / 8x8dct=1 / cqm=0 / deadzone=21,11 / fast_pskip=1 / chroma_qp_offset=-2 / threads=6 / lookahead_threads=1 / sliced_threads=0 / nr=0 / decimate=1 / interlaced=0 / bluray_compat=0 / constrained_intra=0 / bframes=3 / b_pyramid=2 / b_adapt=1 / b_bias=0 / direct=1 / weightb=1 / open_gop=0 / weightp=2 / keyint=240 / keyint_min=24 / scenecut=40 / intra_refresh=0 / rc_lookahead=40 / rc=crf / mbtree=1 / crf=20.0 / qcomp=0.60 / qpmin=0 / qpmax=69 / qpstep=4 / vbv_maxrate=62500 / vbv_bufsize=78125 / crf_max=0.0 / nal_hrd=none / filler=0 / ip_ratio=1.40 / aq=1:1.00\r\nEncoded date                             : UTC 2016-02-07 13:58:54\r\nTagged date                              : UTC 2016-02-07 13:58:54\r\nColor primaries                          : BT.709\r\nTransfer characteristics                 : BT.709\r\nMatrix coefficients                      : BT.709\r\n\r\nAudio\r\nID                                       : 2\r\nFormat                                   : AC-3\r\nFormat/Info                              : Audio Coding 3\r\nMode extension                           : CM (complete main)\r\nFormat settings, Endianness              : Big\r\nCodec ID                                 : ac-3\r\nDuration                                 : 2h 29mn\r\nBit rate mode                            : Constant\r\nBit rate                                 : 224 Kbps\r\nChannel(s)                               : 2 channels\r\nChannel positions                        : Front: L R\r\nSampling rate                            : 48.0 KHz\r\nBit depth                                : 16 bits\r\nCompression mode                         : Lossy\r\nStream size                              : 239 MiB (9%)\r\nTitle                                    : Stereo\r\nEncoded date                             : UTC 2016-02-07 13:58:54\r\nTagged date                              : UTC 2016-02-07 13:58:54","torrent":{"xt":"urn:btih:32132b8db84b355af057a3501b682a0b0af5cf98","amp;dn":"Umphrey%27s+McGee+-+2016-02-04+-+Portland%2C+ME+%28720p+TourGigs+Rip%29","amp;tr":["udp%3A%2F%2Ftracker.leechers-paradise.org%3A6969","udp%3A%2F%2Fzer0day.ch%3A1337","udp%3A%2F%2Fopen.demonii.com%3A1337","udp%3A%2F%2Ftracker.coppersurfer.tk%3A6969","udp%3A%2F%2Fexodus.desync.com%3A6969"],"infoHash":"32132b8db84b355af057a3501b682a0b0af5cf98","infoHashBuffer":{"type":"Buffer","data":[50,19,43,141,184,75,53,90,240,87,163,80,27,104,42,11,10,245,207,152]},"announce":[],"urlList":[]}}